HIERARCHY
ROOT Hips
{
	OFFSET 0.000000 0.000000 0.000000
	CHANNELS 6 Xposition Yposition Zposition Xrotation Yrotation Zrotation
	JOINT LeftUpLeg_virtual
	{
		OFFSET 0.000000 0.000000 0.000000
		CHANNELS 3 Xrotation Yrotation Zrotation
		JOINT LeftUpLeg
		{
			OFFSET 15.427100 -6.655098 0.678600
			CHANNELS 3 Xrotation Yrotation Zrotation
			JOINT LeftLeg
			{
				OFFSET 4.081073 -39.591068 13.024000
				CHANNELS 3 Xrotation Yrotation Zrotation
				JOINT LeftFoot
				{
					OFFSET -4.081074 -37.707932 -15.979700
					CHANNELS 3 Xrotation Yrotation Zrotation
					JOINT LeftToeBase
					{
						OFFSET 5.346399 -15.068900 20.645000
						CHANNELS 3 Xrotation Yrotation Zrotation
						JOINT LeftToe_End
						{
							OFFSET 2.754700 0.931300 11.300900
							CHANNELS 3 Xrotation Yrotation Zrotation
							End Site
							{
								OFFSET 0 0 0
							}
						}
					}
				}
			}
		}
	}
	JOINT RightUpLeg_virtual
	{
		OFFSET 0.000000 0.000000 0.000000
		CHANNELS 3 Xrotation Yrotation Zrotation
		JOINT RightUpLeg
		{
			OFFSET -15.569500 -6.655098 0.678600
			CHANNELS 3 Xrotation Yrotation Zrotation
			JOINT RightLeg
			{
				OFFSET -4.081825 -39.591045 13.023800
				CHANNELS 3 Xrotation Yrotation Zrotation
				JOINT RightFoot
				{
					OFFSET 4.081824 -37.707954 -15.979600
					CHANNELS 3 Xrotation Yrotation Zrotation
					JOINT RightToeBase
					{
						OFFSET -5.346400 -15.068900 20.645000
						CHANNELS 3 Xrotation Yrotation Zrotation
						JOINT RightToe_End
						{
							OFFSET -2.754700 0.931300 11.300900
							CHANNELS 3 Xrotation Yrotation Zrotation
							End Site
							{
								OFFSET 0 0 0
							}
						}
					}
				}
			}
		}
	}
	JOINT Spine_virtual
	{
		OFFSET 0.000000 0.000000 0.000000
		CHANNELS 3 Xrotation Yrotation Zrotation
		JOINT Spine
		{
			OFFSET -0.279200 12.230698 -2.892100
			CHANNELS 3 Xrotation Yrotation Zrotation
			JOINT Spine1
			{
				OFFSET -0.232667 10.192268 -1.242267
				CHANNELS 3 Xrotation Yrotation Zrotation
				JOINT Spine1_split
				{
					OFFSET -0.232667 10.192268 -1.242267
					CHANNELS 3 Xrotation Yrotation Zrotation
					JOINT Spine2
					{
						OFFSET -0.232667 10.192268 -1.242267
						CHANNELS 3 Xrotation Yrotation Zrotation
						JOINT Neck_virtual
						{
							OFFSET 0.000000 0.000000 0.000000
							CHANNELS 3 Xrotation Yrotation Zrotation
							JOINT Neck
							{
								OFFSET -0.418800 17.814194 8.416900
								CHANNELS 3 Xrotation Yrotation Zrotation
								JOINT Head
								{
									OFFSET 0.000000 7.031097 3.806800
									CHANNELS 3 Xrotation Yrotation Zrotation
									JOINT HeadTop_End
									{
										OFFSET 0.000000 24.646606 12.978600
										CHANNELS 3 Xrotation Yrotation Zrotation
										End Site
										{
											OFFSET 0 0 0
										}
									}
								}
							}
						}
						JOINT LeftShoulder_virtual
						{
							OFFSET 0.000000 0.000000 0.000000
							CHANNELS 3 Xrotation Yrotation Zrotation
							JOINT LeftShoulder
							{
								OFFSET 8.476499 7.247704 -3.868750
								CHANNELS 3 Xrotation Yrotation Zrotation
								JOINT LeftShoulder_split
								{
									OFFSET 8.476499 7.247704 -3.868750
									CHANNELS 3 Xrotation Yrotation Zrotation
									JOINT LeftArm
									{
										OFFSET 9.308998 -2.777710 0.208600
										CHANNELS 3 Xrotation Yrotation Zrotation
										JOINT LeftForeArm
										{
											OFFSET 29.972298 0.000000 0.000000
											CHANNELS 3 Xrotation Yrotation Zrotation
											JOINT LeftHand
											{
												OFFSET 26.026505 0.000000 0.000000
												CHANNELS 3 Xrotation Yrotation Zrotation
												End Site
												{
													OFFSET 0 0 0
												}
											}
										}
									}
								}
							}
						}
						JOINT RightShoulder_virtual
						{
							OFFSET 0.000000 0.000000 0.000000
							CHANNELS 3 Xrotation Yrotation Zrotation
							JOINT RightShoulder
							{
								OFFSET -7.570500 7.247704 -3.868750
								CHANNELS 3 Xrotation Yrotation Zrotation
								JOINT RightShoulder_split
								{
									OFFSET -7.570500 7.247704 -3.868750
									CHANNELS 3 Xrotation Yrotation Zrotation
									JOINT RightArm
									{
										OFFSET -9.308998 -2.777710 0.208500
										CHANNELS 3 Xrotation Yrotation Zrotation
										JOINT RightForeArm
										{
											OFFSET -29.972300 0.000000 0.000000
											CHANNELS 3 Xrotation Yrotation Zrotation
											JOINT RightHand
											{
												OFFSET -26.026505 0.000000 0.000000
												CHANNELS 3 Xrotation Yrotation Zrotation
												End Site
												{
													OFFSET 0 0 0
												}
											}
										}
									}
								}
							}
						}
					}
				}
			}
		}
	}
}
MOTION
Frames: 8
Frame Time: 0.03333333
-3.841807 80.860321 -0.329445 0.000000 0.000000 0.000000 52.082327 -72.701585 53.786340 -52.691484 2.964556 -3.001152 42.937854 -6.718123 3.168446 -1.449171 -1.613312 0.092203 0.405209 1.619368 -1.121943 0.000000 0.000000 0.000000 56.952245 -73.656596 59.393092 -37.403984 -2.518826 -20.669701 40.714628 -3.288262 -1.105369 -15.677256 -3.267546 17.051562 0.053409 0.644597 -0.305148 0.000000 0.000000 0.000000 53.926427 -71.782064 54.811957 6.265294 3.481760 4.501059 13.214587 6.789982 6.508930 0.545155 -1.180855 0.621249 0.000000 0.000000 0.000000 12.055647 6.550234 6.302140 1.617539 -0.634713 2.096991 8.476008 4.875096 -5.482818 0.000000 0.000000 0.000000 12.599291 6.546944 6.267749 1.571476 -1.973869 -10.135634 0.697753 1.580368 -0.808215 -52.284880 -25.577300 -93.508964 -0.657149 -24.574363 0.021093 0.000000 0.000000 0.000000 11.998382 6.712502 6.424169 0.935665 12.832791 22.453837 -6.596928 -0.323943 -0.567000 -52.845573 22.646583 73.082997 0.280437 5.731776 1.371371 0.000000 0.000000 0.000000 
-3.815672 80.861885 -0.237457 0.000000 0.000000 0.000000 52.265991 -72.749342 53.951808 -52.732216 3.031434 -3.033074 42.910295 -6.660307 3.200157 -1.428845 -1.556173 0.074873 0.418112 1.624001 -1.141897 0.000000 0.000000 0.000000 56.999841 -73.653393 59.413596 -37.397977 -2.538791 -20.682614 40.700524 -3.268803 -1.105907 -15.627394 -3.297116 17.008814 0.021621 0.650520 -0.299420 0.000000 0.000000 0.000000 53.868882 -71.781525 54.735971 6.206917 3.482711 4.492458 13.243702 6.775708 6.489346 0.548856 -1.187516 0.591727 0.000000 0.000000 0.000000 12.071472 6.539893 6.294116 1.625490 -0.610612 2.108078 8.428672 4.924981 -5.510226 0.000000 0.000000 0.000000 12.592570 6.532894 6.274774 1.579695 -1.962962 -10.171329 0.738704 1.548160 -0.776429 -52.271725 -25.582393 -93.490796 -0.668267 -24.546508 -0.003888 0.000000 0.000000 0.000000 11.983567 6.680952 6.419442 0.958714 12.766224 22.420665 -6.549270 -0.274887 -0.542604 -52.740901 22.468570 73.066440 0.236968 6.045386 1.394933 0.000000 0.000000 0.000000 
-3.781301 80.881660 -0.117825 0.000000 0.000000 0.000000 52.411101 -72.770106 54.060322 -52.768498 3.068491 -3.081660 42.880143 -6.637664 3.210932 -1.455607 -1.517552 0.085068 0.431960 1.639553 -1.182291 0.000000 0.000000 0.000000 56.975338 -73.628661 59.345130 -37.404978 -2.601802 -20.736577 40.677397 -3.248516 -1.081454 -15.574319 -3.342497 16.967605 0.070934 0.655531 -0.280206 0.000000 0.000000 0.000000 53.768028 -71.754252 54.598869 6.124799 3.494834 4.488333 13.288469 6.772166 6.451885 0.577113 -1.144280 0.588563 0.000000 0.000000 0.000000 12.095826 6.533251 6.263245 1.635414 -0.564854 2.083870 8.271934 5.111970 -5.546966 0.000000 0.000000 0.000000 12.604825 6.525915 6.261133 1.589941 -1.970824 -10.199466 0.763491 1.493157 -0.740597 -52.175194 -25.617854 -93.453025 -0.659923 -24.561722 -0.018075 0.000000 0.000000 0.000000 12.006176 6.658765 6.386609 0.979437 12.684512 22.377961 -6.481403 -0.228781 -0.499349 -52.283674 22.510920 72.926818 0.195543 6.841663 1.405469 0.000000 0.000000 0.000000 
-3.747081 80.914398 0.030067 0.000000 0.000000 0.000000 52.472133 -72.755277 54.069167 -52.806952 3.079208 -3.145138 42.864628 -6.616973 3.193917 -1.493402 -1.478073 0.146262 0.462385 1.663945 -1.242405 0.000000 0.000000 0.000000 56.817318 -73.564430 59.125526 -37.427750 -2.700218 -20.833363 40.642754 -3.231589 -1.032600 -15.517275 -3.399349 16.942914 0.190790 0.660157 -0.261303 0.000000 0.000000 0.000000 53.601644 -71.700662 54.381526 6.035582 3.514813 4.488306 13.347056 6.775678 6.401919 0.605910 -1.097623 0.599519 0.000000 0.000000 0.000000 12.127749 6.527194 6.216970 1.641349 -0.504080 2.030816 8.029528 5.418520 -5.586633 0.000000 0.000000 0.000000 12.635085 6.522362 6.230510 1.602291 -1.985431 -10.218195 0.759130 1.432074 -0.729579 -52.025892 -25.702740 -93.391342 -0.635275 -24.649927 -0.026207 0.000000 0.000000 0.000000 12.053655 6.645824 6.334281 0.988989 12.600418 22.323305 -6.429932 -0.168072 -0.445429 -51.573013 22.775592 72.699038 0.172327 7.848718 1.397202 0.000000 0.000000 0.000000 
-3.707928 80.950432 0.207382 0.000000 0.000000 0.000000 52.488190 -72.701975 54.007836 -52.866118 3.080284 -3.220147 42.860643 -6.550717 3.141410 -1.528084 -1.416374 0.307162 0.519942 1.690140 -1.314934 0.000000 0.000000 0.000000 56.561640 -73.463862 58.789364 -37.472607 -2.812980 -20.974941 40.584045 -3.208920 -0.969500 -15.472031 -3.464282 16.960879 0.353028 0.660547 -0.256617 0.000000 0.000000 0.000000 53.377211 -71.619151 54.094473 5.953321 3.535935 4.490770 13.416761 6.778451 6.342332 0.629138 -1.056749 0.617473 0.000000 0.000000 0.000000 12.163983 6.516608 6.162799 1.638873 -0.434838 1.943751 7.727259 5.809179 -5.612480 0.000000 0.000000 0.000000 12.678107 6.517245 6.188289 1.615069 -1.998366 -10.225554 0.741264 1.370673 -0.764331 -51.859659 -25.865259 -93.297358 -0.594559 -24.837112 -0.031797 0.000000 0.000000 0.000000 12.110305 6.637387 6.271222 0.983567 12.522591 22.258487 -6.391767 -0.080286 -0.389405 -50.763148 23.199059 72.416930 0.173263 8.813615 1.371531 0.000000 0.000000 0.000000 
-3.667002 80.972916 0.378029 0.000000 0.000000 0.000000 52.482525 -72.606004 53.895728 -52.946680 3.073996 -3.302025 42.873381 -6.422442 3.057207 -1.531386 -1.337058 0.564810 0.566002 1.712732 -1.378525 0.000000 0.000000 0.000000 56.286100 -73.345495 58.418130 -37.529612 -2.910327 -21.151341 40.517287 -3.170313 -0.905271 -15.443823 -3.540134 17.042446 0.549827 0.649841 -0.269698 0.000000 0.000000 0.000000 53.068060 -71.517265 53.721979 5.885437 3.549516 4.493346 13.491936 6.772174 6.272930 0.632529 -1.040888 0.618279 0.000000 0.000000 0.000000 12.201288 6.495881 6.105490 1.630132 -0.360765 1.824160 7.392473 6.252841 -5.609346 0.000000 0.000000 0.000000 12.726700 6.506145 6.135688 1.627739 -2.001681 -10.228970 0.732911 1.297748 -0.813867 -51.715539 -26.134524 -93.168076 -0.546545 -25.147911 -0.042497 0.000000 0.000000 0.000000 12.166198 6.628281 6.202671 0.960931 12.461793 22.177231 -6.368844 0.000914 -0.323983 -50.001202 23.675481 72.119995 0.195762 9.574589 1.333656 0.000000 0.000000 0.000000 
-3.622563 80.979111 0.563438 0.000000 0.000000 0.000000 52.452964 -72.488415 53.750136 -53.045332 3.075377 -3.384588 42.915585 -6.273298 2.947982 -1.487927 -1.267896 0.877156 0.577670 1.726459 -1.409699 0.000000 0.000000 0.000000 56.022834 -73.220427 58.058097 -37.611714 -2.936250 -21.344980 40.473751 -3.087451 -0.853066 -15.382633 -3.622525 17.217662 0.678079 0.628024 -0.297326 0.000000 0.000000 0.000000 52.704294 -71.402299 53.297725 5.837880 3.547597 4.486804 13.566419 6.750118 6.194364 0.608678 -1.051794 0.597107 0.000000 0.000000 0.000000 12.238517 6.464221 6.047606 1.618747 -0.288227 1.673772 7.037301 6.716329 -5.569249 0.000000 0.000000 0.000000 12.774352 6.486569 6.072432 1.636519 -2.005106 -10.231426 0.742723 1.225009 -0.850241 -51.594795 -26.529845 -92.992909 -0.493980 -25.583790 -0.065602 0.000000 0.000000 0.000000 12.213173 6.613390 6.131470 0.926817 12.414434 22.082169 -6.343938 0.073090 -0.260788 -49.337318 24.100860 71.848208 0.226677 10.139727 1.290907 0.000000 0.000000 0.000000 
-3.571497 80.965851 0.744534 0.000000 0.000000 0.000000 52.353714 -72.358901 53.535784 -53.162562 3.106281 -3.455633 42.985017 -6.131552 2.808870 -1.428588 -1.246628 1.222926 0.582877 1.724799 -1.399949 0.000000 0.000000 0.000000 55.799022 -73.105031 57.745916 -37.720768 -2.852595 -21.517353 40.511621 -2.953357 -0.821738 -15.253233 -3.717592 17.479721 0.712213 0.595443 -0.317974 0.000000 0.000000 0.000000 52.340416 -71.283761 52.871425 5.818549 3.528935 4.467803 13.630032 6.716540 6.109193 0.579546 -1.028131 0.576278 0.000000 0.000000 0.000000 12.273423 6.422160 5.989162 1.610134 -0.223572 1.499673 6.673173 7.164705 -5.492901 0.000000 0.000000 0.000000 12.813796 6.459385 5.999672 1.638160 -2.021985 -10.248707 0.757871 1.172987 -0.848835 -51.465400 -27.047078 -92.756742 -0.445189 -26.126688 -0.106834 0.000000 0.000000 0.000000 12.249147 6.589437 6.055731 0.890377 12.378618 21.967995 -6.279640 0.121193 -0.227178 -48.757575 24.417378 71.601160 0.259341 10.652388 1.260777 0.000000 0.000000 0.000000 
